# File created by Blade
# Date/Time:  Thu Sep 25 17:33:50 2014
# Frame Rate: 120.000 fps
#------------------------------------------------------
:FULLY-SPECIFIED
:DEGREES
808
root -8.445087 33.478819 -3.263906 53.354826 17.012461 18.964186
Spine -8.354797 -3.994514 -2.574692
Head -35.167886 -14.549859 6.128021
LeftShoulder 6.248605 8.335035 19.168516
LeftArm 74.775203 32.924513 -41.206017
LeftForeArm 36.383501 -0.000000 108.769325
LeftHand -33.463473 -0.000000 53.350209
LeftHandThumb1 -26.253704 0.000000 33.147579
RightShoulder -10.691191 12.589641 -21.599252
RightArm 9.406264 -35.881770 74.637713
RightForeArm -33.323425 -0.000000 127.829229
RightHand 1.905274 -0.000000 -58.609938
RightHandThumb1 -24.326973 -0.000000 -32.862282
LeftUpLeg -25.733403 -5.703662 -1.417005
LeftLeg 83.158265 -0.000000 -0.000000
LeftFoot -12.634109 8.052515 -32.635946
LeftToeBase -2.419189 -0.000000 0.000000
RightUpLeg -58.655221 -9.166859 -7.379919
RightLeg 21.305950 -0.000000 -0.000000
RightFoot -6.767832 -21.274317 -11.808356
RightToeBase -2.877547 -0.000000 0.000000
809
root -8.446912 33.485358 -3.280089 53.041020 17.125955 19.129410
Spine -8.357787 -3.726206 -2.983571
Head -34.761976 -14.802960 6.365620
LeftShoulder 6.332794 8.521582 19.318065
LeftArm 74.789428 32.881169 -41.287788
LeftForeArm 36.112998 -0.000000 108.792777
LeftHand -33.312826 -0.000000 53.108586
LeftHandThumb1 -26.253704 0.000000 33.147579
RightShoulder -10.745104 12.514386 -21.547655
RightArm 9.330821 -35.790518 74.782171
RightForeArm -33.209420 -0.000000 127.794255
RightHand 2.151173 -0.000000 -58.014658
RightHandThumb1 -24.326973 -0.000000 -32.862282
LeftUpLeg -27.224520 -5.906563 -2.165519
LeftLeg 83.157708 -0.000000 -0.000000
LeftFoot -13.439610 8.158474 -32.868858
LeftToeBase -2.445580 -0.000000 0.000000
RightUpLeg -58.327945 -9.417022 -7.336519
RightLeg 21.334049 -0.000000 -0.000000
RightFoot -6.786719 -21.189929 -11.778323
RightToeBase -2.889930 -0.000000 0.000000
810
root -8.445350 33.490511 -3.297117 52.700065 17.238576 19.281766
Spine -8.340009 -3.508515 -3.355261
Head -34.343709 -14.989247 6.537612
LeftShoulder 6.318451 8.605830 19.396928
LeftArm 74.807629 32.923204 -41.297118
LeftForeArm 35.781520 0.000000 108.735493
LeftHand -33.384634 0.000000 53.291643
LeftHandThumb1 -26.253704 0.000000 33.147579
RightShoulder -10.748531 12.587262 -21.605357
RightArm 9.120386 -35.811414 75.122285
RightForeArm -33.003707 0.000000 127.680156
RightHand 2.368546 0.000000 -58.447829
RightHandThumb1 -24.326973 -0.000000 -32.862282
LeftUpLeg -28.648306 -6.159908 -2.924299
LeftLeg 82.956813 -0.000000 -0.000000
LeftFoot -14.208426 8.260931 -32.907402
LeftToeBase -2.641080 -0.000000 0.000000
RightUpLeg -58.021915 -9.797777 -7.139205
RightLeg 21.404272 -0.000000 -0.000000
RightFoot -6.826457 -20.953033 -11.918715
RightToeBase -2.944102 -0.000000 0.000000
811
root -8.442271 33.496911 -3.314132 52.379067 17.370865 19.456317
Spine -8.337444 -3.408467 -3.689937
Head -33.953832 -15.110635 6.667190
LeftShoulder 6.245690 8.681347 19.412447
LeftArm 74.779460 33.034506 -41.303793
LeftForeArm 35.345622 -0.000000 108.664682
LeftHand -33.399165 -0.000000 53.429399
LeftHandThumb1 -26.253704 0.000000 33.147579
RightShoulder -10.697982 12.647230 -21.614040
RightArm 8.955476 -35.823962 75.394999
RightForeArm -32.974997 -0.000000 127.523665
RightHand 2.662006 -0.000000 -56.757899
RightHandThumb1 -24.326973 -0.000000 -32.862282
LeftUpLeg -30.038167 -6.479922 -3.660788
LeftLeg 82.581514 -0.000000 -0.000000
LeftFoot -14.989246 8.155063 -33.174198
LeftToeBase -1.591352 -0.000000 0.000000
RightUpLeg -57.756174 -10.318049 -6.817529
RightLeg 21.485410 -0.000000 -0.000000
RightFoot -6.872571 -20.670032 -12.150275
RightToeBase -2.940141 -0.000000 0.000000
812
root -8.439482 33.500112 -3.327504 52.019369 17.499866 19.608413
Spine -8.287039 -3.253788 -4.039428
Head -33.612280 -15.223585 6.827840
LeftShoulder 6.210438 8.675237 19.407009
LeftArm 74.602870 33.128226 -41.406317
LeftForeArm 34.442201 -0.000000 108.601917
LeftHand -32.929860 -0.000000 53.078220
LeftHandThumb1 -26.253704 0.000000 33.147579
RightShoulder -10.714620 12.645218 -21.598040
RightArm 8.910178 -35.874917 75.617867
RightForeArm -32.751960 0.000000 127.374944
RightHand 2.769641 -0.000000 -56.612589
RightHandThumb1 -24.326973 -0.000000 -32.862282
LeftUpLeg -31.331872 -6.812621 -4.374844
LeftLeg 81.972457 -0.000000 -0.000000
LeftFoot -15.501699 8.191098 -32.914458
LeftToeBase -1.267061 -0.000000 0.000000
RightUpLeg -57.481683 -10.861598 -6.435160
RightLeg 21.598831 -0.000000 -0.000000
RightFoot -6.973623 -20.314770 -12.415503
RightToeBase -2.902067 -0.000000 0.000000
813
root -8.434116 33.502452 -3.340499 51.624621 17.602032 19.743052
Spine -8.176061 -3.015708 -4.403709
Head -33.394891 -15.394514 6.970305
LeftShoulder 6.178341 8.722865 19.364323
LeftArm 74.633592 33.159168 -41.320466
LeftForeArm 33.686015 -0.000000 108.529242
LeftHand -32.834211 -0.000000 53.109930
LeftHandThumb1 -26.253704 0.000000 33.147579
RightShoulder -10.767684 12.673903 -21.625426
RightArm 8.782138 -35.848152 75.886674
RightForeArm -32.702678 -0.000000 127.275878
RightHand 2.627250 0.000000 -58.184719
RightHandThumb1 -24.326973 -0.000000 -32.862282
LeftUpLeg -32.541417 -7.175480 -5.074923
LeftLeg 81.203458 -0.000000 -0.000000
LeftFoot -16.075314 8.117400 -33.278986
LeftToeBase -1.612131 -0.000000 0.000000
RightUpLeg -57.198817 -11.408272 -6.031949
RightLeg 21.715934 -0.000000 -0.000000
RightFoot -7.060610 -19.960253 -12.750085
RightToeBase -2.832511 -0.000000 0.000000
814
root -8.431153 33.502542 -3.350901 51.226610 17.717015 19.845212
Spine -8.081243 -2.746334 -4.730413
Head -33.182202 -15.584850 7.094440
LeftShoulder 6.179113 8.732580 19.308243
LeftArm 74.634240 33.233970 -41.207168
LeftForeArm 33.247904 -0.000000 108.478076
LeftHand -32.892707 -0.000000 53.010094
LeftHandThumb1 -26.253704 0.000000 33.147579
RightShoulder -10.792287 12.677421 -21.598704
RightArm 8.607917 -35.884066 76.049970
RightForeArm -32.633632 0.000000 127.200101
RightHand 2.763203 -0.000000 -56.604391
RightHandThumb1 -24.326973 -0.000000 -32.862282
LeftUpLeg -33.709008 -7.544852 -5.704175
LeftLeg 80.278082 -0.000000 -0.000000
LeftFoot -16.694050 8.046662 -33.915435
LeftToeBase -1.442733 -0.000000 0.000000
RightUpLeg -56.935655 -11.923717 -5.612283
RightLeg 21.853556 -0.000000 -0.000000
RightFoot -7.129588 -19.650981 -13.082486
RightToeBase -2.855360 -0.000000 0.000000
